<svg width="943" height="150" viewBox="0 0 943 150" fill="none" xmlns="http://www.w3.org/2000/svg">
<g clip-path="url(#clip0_8_88)">
<path d="M45.33 109.237H63.05C91.26 109.237 95.4 86.4188 95.4 72.6282C95.4 63.3811 92.52 37.6772 59.77 37.6772H45.34V109.257L45.33 109.237ZM0 0H74.41C123.41 0 140.73 36.2292 140.71 73.2573C140.71 118.294 116.79 146.884 65.5 146.864H0V0Z" fill="#F79122"/>
<path d="M214.21 99.0012C209.08 101.353 203.684 103.076 198.14 104.134C189.08 106.131 184.34 108.458 184.34 115.648C184.34 120.571 189.69 125.504 197.11 125.514C206.38 125.514 213.59 119.972 214.2 108.867V99.0012H214.21ZM253.34 123.077C253.34 131.066 253.75 140.154 258.27 146.934H216.67C215.586 143.686 215.098 140.269 215.23 136.848H214.82C206.16 146.734 193.6 149.59 180.42 149.59C159.82 149.59 142.72 139.714 142.73 117.276C142.73 83.5629 182.28 84.8011 203.09 80.9166C208.66 79.918 214.22 78.2403 214.22 71.4498C214.22 64.2499 207.42 61.5737 200.83 61.5737C188.27 61.5737 185.83 67.9348 185.59 72.4684H147.68C148.31 57.4894 155.68 48.6218 166.24 43.6888C176.53 38.7457 190.13 37.5274 202.69 37.5274C253.78 37.5274 253.35 58.7177 253.35 79.2889V123.107L253.34 123.077Z" fill="#F79122"/>
<path d="M317.75 40.1936H339.58V65.2984H317.73V102.526C317.73 112.402 320 116.716 330.3 116.716C333.397 116.718 336.49 116.514 339.56 116.107V146.964C331.32 146.964 322.06 148.192 313.41 148.192C296.1 148.192 276.95 145.506 276.95 116.287V65.2885H258.83V40.1737H276.96V7.68921H317.75V40.1936Z" fill="#F79122"/>
<path d="M417.2 99.0511C412.26 101.528 406.69 102.956 401.13 104.184C392.06 106.241 387.33 108.508 387.33 115.708C387.33 120.641 392.68 125.584 400.1 125.584C409.37 125.584 416.58 120.032 417.19 108.917V99.0511H417.2ZM456.33 123.127C456.33 131.116 456.74 140.193 461.28 146.994H419.66C418.586 143.747 418.098 140.335 418.22 136.918H417.82C409.15 146.794 396.6 149.68 383.41 149.67C362.81 149.67 345.72 139.774 345.72 117.355C345.72 83.6328 385.29 84.881 406.08 80.9665C411.66 79.9679 417.2 78.3002 417.2 71.5098C417.2 64.3198 410.41 61.6336 403.82 61.6336C391.26 61.6336 388.82 68.0147 388.58 72.5283H350.68C351.29 57.5493 358.68 48.6618 369.23 43.7287C379.52 38.7357 393.12 37.5574 405.69 37.5773C456.76 37.5773 456.34 58.7776 456.33 79.3388V123.127Z" fill="#F79122"/>
<path d="M471.76 0.140015H517.09L517.08 50.7491H517.49L557.88 0.150001L613.69 0.169973L560.33 57.5495L622.29 147.044L565.87 147.024L529.62 89.8442L517.06 103.615L517.03 147.024L471.72 147.004L471.76 0.140015Z" fill="#F79122"/>
<path d="M624.17 40.2837H665V147.034H624.2V40.2837H624.17ZM665 28.7799H624.21V0.160004L665 0.189962V28.7799Z" fill="#F79122"/>
<path d="M680.61 40.3035H719.94V53.9244H720.35C728 43.1994 738.9 37.6472 755.17 37.6572C774.32 37.6572 791.84 49.3908 791.84 73.8565V147.094H751.05V91.1722C751.05 78.8295 749.62 70.2016 737.66 70.2016C730.66 70.2016 721.39 73.7067 721.39 90.7827V147.134H680.57V40.3734L680.61 40.3035Z" fill="#F79122"/>
<path d="M858.3 67.2957C843.69 67.2957 840.41 81.1063 840.43 93.6387C840.43 106.401 843.75 120.172 858.43 120.162C873.11 120.152 876.32 106.361 876.32 93.6088C876.32 81.0564 872.97 67.2757 858.32 67.2957H858.3ZM915.5 147.034H876.32V135.35H875.9C870.76 142.151 864.6 149.79 844.6 149.79C814.32 149.79 799.69 120.022 799.6 93.2892C799.6 68.1844 809.23 37.7471 845.06 37.6872C857.23 37.6872 868.14 43.0197 874.35 52.047H874.76L874.71 0.209717H915.5V147.084V147.034Z" fill="#F79122"/>
<path d="M918.94 7.50948C919.573 6.06796 920.48 4.76244 921.61 3.66487C922.746 2.56897 924.079 1.69812 925.54 1.09846C928.592 -0.13943 932.008 -0.13943 935.06 1.09846C937.998 2.29889 940.349 4.60003 941.61 7.50948C942.28 9.02548 942.62 10.6658 942.61 12.3227C942.627 14.006 942.286 15.6737 941.61 17.2159C940.981 18.6697 940.082 19.9912 938.96 21.1104C937.842 22.2143 936.517 23.0865 935.06 23.6768C932.002 24.9017 928.588 24.9017 925.53 23.6768C924.066 23.0893 922.733 22.2169 921.61 21.1104C920.437 19.9683 919.509 18.6009 918.88 17.0906C918.25 15.5803 917.934 13.9584 917.95 12.3227C917.941 10.667 918.278 9.02767 918.94 7.50948ZM920.94 16.4969C921.427 17.7328 922.151 18.8623 923.07 19.8222C924.011 20.7814 925.137 21.5411 926.379 22.0559C927.622 22.5707 928.955 22.8299 930.3 22.818C931.634 22.8279 932.957 22.5675 934.187 22.0526C935.418 21.5377 936.531 20.7789 937.46 19.8222C938.386 18.8654 939.113 17.7353 939.6 16.4969C940.119 15.1669 940.381 13.7503 940.37 12.3227C940.381 10.9244 940.119 9.53722 939.6 8.23845C939.117 7.01815 938.397 5.90496 937.482 4.96255C936.568 4.02014 935.476 3.26699 934.27 2.74615C933.005 2.21461 931.642 1.95272 930.27 1.97723C928.898 1.95677 927.536 2.21851 926.27 2.74615C925.072 3.26832 923.989 4.02259 923.084 4.96532C922.18 5.90806 921.471 7.02056 921 8.23845C920.481 9.53722 920.219 10.9244 920.23 12.3227C920.219 13.7503 920.481 15.1669 921 16.4969H920.94ZM931.07 5.22268C932.411 5.11207 933.749 5.4646 934.86 6.22128C935.284 6.6078 935.614 7.08564 935.825 7.61855C936.037 8.15146 936.124 8.72545 936.08 9.29697C936.126 9.82191 936.052 10.3504 935.865 10.8431C935.679 11.3359 935.383 11.7802 935 12.143C934.232 12.7616 933.294 13.134 932.31 13.2115L936.41 19.5226H934L930.1 13.3713H927.73V19.5226H925.5V5.22268H931.07ZM930.07 11.5538C930.544 11.5648 931.018 11.5448 931.49 11.4939C931.904 11.4758 932.311 11.381 932.69 11.2143C933.033 11.0685 933.325 10.8254 933.53 10.5153C933.754 10.11 933.858 9.64931 933.83 9.18712C933.852 8.78641 933.758 8.38785 933.56 8.03873C933.372 7.76728 933.122 7.54471 932.83 7.38964C932.516 7.23333 932.178 7.12879 931.83 7.08008C931.446 7.0236 931.058 6.99358 930.67 6.9902H927.75V11.5438L930.07 11.5538Z" fill="#F79122"/>
</g>
<defs>
<clipPath id="clip0_8_88">
<rect width="942.611" height="149.79" fill="white"/>
</clipPath>
</defs>
</svg>
