<svg width="300" height="350" viewBox="0 0 300 350" fill="none" xmlns="http://www.w3.org/2000/svg">
<g clip-path="url(#clip0_1_7)">
<path d="M233.27 37.53C219.16 20.41 193.23 0 149.86 0C121.115 -0.173407 93.4397 10.8854 72.73 30.82C53.37 49.55 41.82 74.75 41.05 100C39.66 145.09 69.44 188.36 79.23 202.59C80.46 204.37 81.43 205.78 81.95 206.59C86.66 214.27 90.95 222.07 92.37 232.99C92.79 236.33 92.57 243.35 92.31 251.48C91.68 271.48 90.9 296.36 97.53 302.99C106.96 312.43 125.53 317.62 149.86 317.62C175.3 317.62 196.26 307.57 202.43 302.7C205.72 300.1 206.72 290.42 206.82 276.76C206.82 276.7 206.82 276.64 206.82 276.58C206.87 270.27 206.72 263.11 206.52 255.41C206.36 249.32 206.22 244.06 206.31 240.6C206.64 227.98 207.31 226.71 215.31 211.19L217 207.8C218.78 204.33 221.35 199.88 224.32 194.74C237.08 172.64 258.44 135.65 258.32 103.33C258.34 86.2 251.72 59.92 233.27 37.53ZM95.11 269.12H98.27C99.7997 270.549 101.476 271.812 103.27 272.89H95.12C95.11 271.64 95.11 270.38 95.11 269.12ZM95.11 266.99C95.11 266.44 95.11 265.88 95.11 265.33C95.4774 265.912 95.8815 266.47 96.32 267L95.11 266.99ZM146 174.28H148.55L148.64 177.61L146 174.28ZM148.15 182.13L124.51 201.81C124.202 201.495 123.867 201.208 123.51 200.95L133.04 163.09L148.15 182.13ZM144.31 172.13L141.31 168.36H148.37L148.48 172.13H144.31ZM139.64 166.24L136.64 162.47H148.21L148.31 166.24H139.64ZM135 160.36L134.07 159.2L134.73 156.59H148.08L148.19 160.36H135ZM135.27 154.47L136.21 150.7H147.91L148.02 154.47H135.27ZM136.75 148.57L137.75 144.8H147.75L147.86 148.57H136.75ZM146.75 108.89L146.87 113.2H145.67L146.75 108.89ZM146.48 94.81H138.38L97.78 91H146.55L146.48 94.81ZM146.93 115.33L147.04 119.1H144.18L145.18 115.33H146.93ZM147.1 121.22L147.2 124.99H142.7L143.7 121.22H147.1ZM147.26 127.12L147.37 130.89H141.2L142.2 127.12H147.26ZM147.43 133.01L147.54 136.78H139.72L140.72 133.01H147.43ZM147.59 138.91L147.7 142.68H138.23L139.23 138.91H147.59ZM147.59 41.76H139L143.5 38H147.69L147.59 41.76ZM147.59 43.88L147.51 47.65H131.93L136.44 43.88H147.59ZM147.46 49.78L147.38 53.55H124.88L129.39 49.78H147.46ZM147.33 55.67L147.25 59.44H117.83L122.34 55.67H147.33ZM147.21 61.57L147.13 65.34H110.77L115.28 61.57H147.21ZM147.08 67.46L147 71.23H103.72L108.23 67.46H147.08ZM146.95 73.36L146.87 77.13H96.67L101.17 73.36H146.95ZM146.83 79.25L146.73 83H89.61L94.12 79.23L146.83 79.25ZM146.7 85.15L146.62 88.92H84.36C84.2226 88.5455 84.0519 88.184 83.85 87.84L87.07 85.15H146.7ZM84.59 93L146 98.73L132 154.47H131.9V154.85L131.6 156.05L83.51 95.39C84.0212 94.6707 84.388 93.859 84.59 93ZM130.59 159.92L120.59 199.62C119.74 199.467 118.87 199.467 118.02 199.62L82.52 99.29L130.59 159.92ZM126.33 206.5C126.331 205.877 126.243 205.258 126.07 204.66L150.41 184.42L175.7 204.85C175.035 206.55 175.061 208.441 175.77 210.123C176.48 211.804 177.818 213.141 179.5 213.85L174.31 237.85C158.27 234.86 141.818 234.837 125.77 237.78L121.77 213.04C123.105 212.543 124.257 211.651 125.072 210.483C125.887 209.314 126.326 207.925 126.33 206.5ZM180.17 198.11L179 194.34H185.15L184 198.11H180.17ZM183.26 200.24L183.18 200.49C182.849 200.438 182.515 200.411 182.18 200.41C181.75 200.412 181.321 200.456 180.9 200.54L180.81 200.24H183.26ZM178.39 192.24L177.25 188.47H187.1L185.87 192.24H178.39ZM166.29 163.24L178 201.84L177.55 202.22L152.61 182.07L166.29 163.24ZM151.86 177.65L149.94 109.2L165.13 159.41L151.86 177.65ZM176.61 186.33L175.47 182.56H189L187.77 186.33H176.61ZM174.82 180.44L173.68 176.67H191L189.77 180.44H174.82ZM173.04 174.54L171.9 170.77H192.9L191.67 174.54H173.04ZM171.26 168.65L170.12 164.88H194.79L193.56 168.65H171.26ZM169.48 162.75L168.64 160L169.38 159H196.72L195.49 162.77L169.48 162.75ZM170.93 156.86L173.67 153.09H198.67L197.44 156.86H170.93ZM175.22 150.96L177.96 147.19H200.56L199.33 151L175.22 150.96ZM179.51 145.07L182.25 141.3H202.48L201.25 145.07H179.51ZM183.8 139.17L186.54 135.4H204.41L203.18 139.17H183.8ZM188.08 133.28L190.83 129.51H206.33L205.1 133.28H188.08ZM192.37 127.38L195.11 123.61H208.25L207 127.37L192.37 127.38ZM196.66 121.49L199.4 117.72H210.17L208.94 121.49H196.66ZM200.95 115.59L203.69 111.82H212.1L210.87 115.59H200.95ZM205.24 109.7L207.98 105.93H213.98L212.75 109.7H205.24ZM209.53 103.8L212.27 100.03H215.94L214.71 103.8H209.53ZM213.82 97.91L216.56 94.14H217.86L216.64 97.91H213.82ZM167.48 156.17L150.05 98.53L215.79 85.61C216.164 86.3856 216.679 87.0843 217.31 87.67L167.48 156.17ZM215.09 82.5L149.65 95.36L150.89 37.83C152.12 37.6441 153.278 37.1293 154.24 36.34L215.5 80.22C215.231 80.95 215.092 81.7218 215.09 82.5ZM126.09 259.57L129.23 259.06L126.28 241C141.927 238.05 157.989 238.067 173.63 241.05L170.16 257.05L173.28 257.72L176.75 241.67C192.39 245.3 203.12 251.92 203.12 259.3C203.12 262 201.68 264.59 199.12 266.97H199V267.07C190.87 274.48 171.64 279.84 149.86 279.84C120.99 279.84 96.59 270.43 96.59 259.3C96.59 251.88 107.42 245.24 123.17 241.63L126.09 259.57ZM110.16 290.57C107.553 289.55 105.045 288.291 102.67 286.81H196.2C193.825 288.291 191.317 289.55 188.71 290.57H110.16ZM182.58 292.7C176.093 294.576 169.444 295.839 162.72 296.47H136.17C129.44 295.839 122.784 294.577 116.29 292.7H182.58ZM99.77 284.7C98.4759 283.627 97.3618 282.355 96.47 280.93H126.07C141.795 283.783 157.905 283.783 173.63 280.93H202.36C201.475 282.357 200.364 283.63 199.07 284.7H99.77ZM95.21 276.84C95.21 276.24 95.21 275.64 95.21 275.04H107.2C110.426 276.562 113.77 277.819 117.2 278.8H95.5C95.311 278.156 95.2067 277.491 95.19 276.82L95.21 276.84ZM200.45 300.2C194.57 304.84 174.45 314.43 149.86 314.43C126.4 314.43 108.62 309.57 99.78 300.74C97.4 298.36 96.17 292.32 95.58 284.85C101.21 291.07 112.99 296.06 127.85 298.56H128.05C142.211 300.853 156.649 300.853 170.81 298.56H171.5V298.45C186.28 295.9 197.95 290.86 203.42 284.6C203.08 292.47 202.24 298.78 200.45 300.2ZM203.62 277C203.592 277.617 203.487 278.228 203.31 278.82H182.52C185.951 277.843 189.295 276.585 192.52 275.06H203.65C203.63 275.67 203.62 276.32 203.62 277ZM196.43 272.93C198.224 271.852 199.9 270.589 201.43 269.16H203.61C203.61 270.41 203.61 271.67 203.61 272.93H196.43ZM203.38 267.03L203.58 266.79V267L203.38 267.03ZM221.59 193.18C218.59 198.36 216.01 202.84 214.19 206.38L212.45 209.77C204.45 225.22 203.45 227.2 203.12 240.55C203.05 243.29 203.12 247.08 203.23 251.49C198.7 245.91 189.48 241.34 177.43 238.56L182.65 214.38C184.084 214.268 185.449 213.716 186.558 212.8C187.668 211.885 188.468 210.649 188.851 209.263C189.233 207.876 189.179 206.405 188.696 205.05C188.213 203.695 187.324 202.522 186.15 201.69L198.15 164.91L219.3 100H219.39V99.73L222.72 89.49C223.836 89.3909 224.912 89.0254 225.857 88.4243C226.802 87.8232 227.59 87.004 228.153 86.0355C228.716 85.067 229.038 83.9775 229.092 82.8586C229.147 81.7396 228.932 80.6239 228.466 79.6052C228 78.5865 227.296 77.6946 226.414 77.0043C225.532 76.314 224.497 75.8455 223.396 75.6383C222.295 75.431 221.16 75.491 220.087 75.8132C219.014 76.1355 218.035 76.7105 217.23 77.49L156.23 33.76C156.642 32.8595 156.854 31.8803 156.85 30.89C156.85 29.0335 156.112 27.253 154.8 25.9403C153.487 24.6275 151.707 23.89 149.85 23.89C147.993 23.89 146.213 24.6275 144.9 25.9403C143.587 27.253 142.85 29.0335 142.85 30.89C142.848 31.8919 143.067 32.8819 143.49 33.79L98.75 71.23H98.69L81.69 85.47C80.5582 84.7178 79.229 84.3176 77.87 84.32C76.9044 84.2382 75.9323 84.3577 75.0153 84.6711C74.0983 84.9845 73.2563 85.4848 72.5428 86.1405C71.8292 86.7962 71.2595 87.5929 70.8698 88.4801C70.4801 89.3674 70.2789 90.3259 70.2789 91.295C70.2789 92.2641 70.4801 93.2226 70.8698 94.1099C71.2595 94.9971 71.8292 95.7938 72.5428 96.4495C73.2563 97.1052 74.0983 97.6055 75.0153 97.9189C75.9323 98.2323 76.9044 98.3518 77.87 98.27C78.1845 98.2669 78.4985 98.2436 78.81 98.2L115.11 201C114.02 201.854 113.207 203.013 112.776 204.329C112.344 205.645 112.313 207.059 112.685 208.393C113.058 209.727 113.818 210.921 114.869 211.823C115.92 212.725 117.215 213.294 118.59 213.46L122.59 238.46C109.36 241.46 99.49 246.6 95.41 252.86C95.41 252.44 95.41 252.02 95.41 251.6C95.68 243 95.89 236.2 95.41 232.6C93.96 221.05 89.41 212.92 84.55 204.93C83.99 204.02 83.05 202.65 81.74 200.76C72.1 186.76 42.74 144.12 44.12 100.08C45 75.68 56.18 51.27 75 33.12C95.0966 13.7645 121.959 3.02469 149.86 3.19C191.99 3.19 217.13 22.97 230.86 39.56C248.77 61.3 255.2 86.76 255.25 103.34C255.28 134.8 234.19 171.32 221.59 193.14V193.18ZM218.1 92L218.93 90.87L218.56 92H218.1Z" fill="#303030"/>
<path d="M180.89 319.78C160.842 324.873 139.838 324.873 119.79 319.78L117.79 319.21V335.79C117.79 342.68 129.21 350 150.37 350C172.59 350 182.95 341.52 182.95 335.79V319.21L180.89 319.78ZM179.73 335.78C179.73 339.03 171.27 346.78 150.34 346.78C129.57 346.78 120.95 339.61 120.95 335.78V323.37C140.278 327.93 160.402 327.93 179.73 323.37V335.78Z" fill="#303030"/>
</g>
<defs>
<clipPath id="clip0_1_7">
<rect width="217.39" height="350" fill="white" transform="translate(41)"/>
</clipPath>
</defs>
</svg>
