<?xml version="1.0" standalone="no"?>
<!DOCTYPE svg PUBLIC "-//W3C//DTD SVG 20010904//EN"
 "http://www.w3.org/TR/2001/REC-SVG-20010904/DTD/svg10.dtd">
<svg version="1.0" xmlns="http://www.w3.org/2000/svg"
 width="2000.000000pt" height="2000.000000pt" viewBox="0 0 2000.000000 2000.000000"
 preserveAspectRatio="xMidYMid meet">

<g transform="translate(0.000000,2000.000000) scale(0.100000,-0.100000)"
fill="#000000" stroke="none">
<path d="M9795 15514 c-580 -48 -1086 -282 -1488 -687 -357 -360 -575 -811
-649 -1342 -19 -133 -15 -455 6 -595 63 -418 227 -798 486 -1125 143 -181 391
-399 600 -528 253 -155 587 -273 905 -319 133 -19 484 -16 620 5 667 104 1230
461 1601 1014 74 110 198 354 245 483 42 117 94 322 115 460 22 143 25 480 5
620 -65 463 -248 872 -546 1218 -363 422 -870 697 -1430 777 -103 15 -382 26
-470 19z m351 -145 c327 -31 655 -139 924 -303 363 -222 643 -529 830 -911
478 -975 153 -2155 -760 -2758 -637 -421 -1451 -473 -2135 -138 -239 117 -433
259 -613 446 -882 915 -798 2362 183 3181 38 32 124 93 190 136 411 269 905
394 1381 347z"/>
<path d="M3738 14969 c-608 -59 -1142 -428 -1409 -974 -37 -77 -82 -182 -98
-233 -114 -348 -113 -748 4 -1098 199 -598 696 -1038 1324 -1171 114 -24 147
-27 341 -27 186 -1 231 2 328 22 765 155 1329 760 1423 1525 17 140 7 403 -21
542 -72 363 -244 674 -520 938 -364 349 -870 524 -1372 476z m327 -139 c340
-38 627 -161 890 -382 204 -171 386 -435 478 -693 14 -39 38 -125 53 -190 27
-113 28 -133 28 -345 0 -195 -3 -239 -22 -326 -142 -652 -650 -1149 -1297
-1270 -151 -28 -472 -26 -611 4 -628 136 -1121 618 -1260 1231 -98 433 -16
876 229 1249 158 240 376 433 636 562 269 135 586 192 876 160z"/>
<path d="M15838 14969 c-328 -32 -651 -161 -913 -364 -265 -207 -482 -514
-589 -835 -60 -179 -77 -283 -83 -495 -8 -281 26 -483 123 -718 225 -549 695
-939 1283 -1064 115 -25 145 -27 346 -27 201 0 231 2 346 27 741 157 1285 735
1395 1479 23 155 15 450 -16 593 -71 332 -227 628 -454 863 -172 178 -305 275
-516 376 -290 139 -605 195 -922 165z m327 -139 c214 -24 369 -70 560 -165 72
-36 173 -95 225 -132 121 -87 286 -252 373 -373 82 -115 185 -321 225 -450
182 -580 36 -1190 -387 -1623 -227 -233 -504 -385 -837 -459 -85 -19 -129 -22
-319 -22 -190 0 -234 3 -319 22 -335 75 -613 227 -842 464 -419 431 -563 1041
-382 1618 40 129 143 335 225 450 87 121 252 286 373 373 114 80 321 186 445
226 216 69 449 94 660 71z"/>
<path d="M1295 11159 c-202 -29 -402 -141 -531 -298 -64 -77 -134 -209 -166
-311 l-23 -75 -3 -2142 -2 -2143 2340 0 2340 0 0 65 0 65 -2270 0 -2270 0 0
2048 c0 2005 0 2050 20 2126 31 124 92 228 185 321 91 91 174 143 290 183 l80
27 2570 3 c1917 2 2589 0 2645 -9 142 -21 264 -81 377 -183 l61 -56 82 0 81 0
-18 31 c-31 52 -185 193 -261 239 -89 53 -212 95 -315 109 -97 13 -5121 13
-5212 0z"/>
<path d="M13430 11164 c-199 -31 -332 -89 -470 -205 -44 -37 -150 -159 -150
-173 0 -3 37 -6 83 -6 82 0 83 0 118 36 95 100 255 181 399 204 56 8 740 10
2640 8 2437 -3 2568 -4 2625 -21 206 -62 366 -196 455 -382 75 -157 70 11 70
-2264 l0 -2041 -2280 0 -2280 0 0 -65 0 -65 2350 0 2350 0 0 2098 c0 1383 -4
2119 -10 2162 -53 332 -293 598 -626 692 l-79 23 -2585 1 c-1422 1 -2596 0
-2610 -2z"/>
<path d="M6915 10523 c-179 -22 -382 -85 -547 -170 -154 -78 -266 -161 -404
-298 -265 -264 -423 -594 -463 -967 -8 -66 -11 -936 -11 -2668 l0 -2570 4460
0 4460 0 -3 2638 -3 2637 -22 100 c-34 158 -81 290 -147 422 -222 438 -616
740 -1113 855 l-97 23 -3040 1 c-1672 1 -3053 -1 -3070 -3z m2955 -1547 l0
-1293 -60 -22 c-84 -31 -177 -118 -216 -203 -26 -56 -29 -74 -29 -163 0 -89 3
-107 29 -163 39 -85 132 -172 216 -203 l60 -22 0 -1393 0 -1394 -2055 0 -2055
0 2 2508 3 2507 28 103 c113 426 391 752 787 923 106 46 252 85 360 98 41 5
717 9 1503 10 l1427 1 0 -1294z m3197 1267 c50 -12 98 -25 106 -30 10 -6 -386
-355 -1482 -1309 l-1496 -1301 -35 23 c-19 13 -56 31 -82 40 l-48 16 0 1294 0
1295 1473 -4 c1457 -3 1473 -3 1564 -24z m356 -129 c101 -51 233 -150 330
-247 53 -53 97 -102 97 -107 0 -6 -165 -10 -461 -10 -259 0 -459 4 -457 9 3 9
428 381 435 381 2 0 27 -12 56 -26z m575 -581 c28 -56 73 -165 87 -210 l6 -23
-846 0 -847 0 167 145 166 145 619 0 620 0 28 -57z m136 -440 c3 -21 8 -86 11
-145 l7 -108 -1136 0 c-625 0 -1136 2 -1136 4 0 3 73 68 161 145 l161 141 963
0 963 0 6 -37z m14 -566 c2 -112 0 -149 -10 -152 -7 -3 -641 -4 -1408 -3
l-1395 3 175 152 175 153 1230 -3 1230 -2 3 -148z m0 -464 l3 -143 -1668 0
c-1457 0 -1665 2 -1653 15 8 7 83 73 165 144 l150 131 1500 -3 1500 -2 3 -142z
m2 -458 l0 -145 -1919 0 c-1056 0 -1922 4 -1925 8 -3 5 66 70 152 145 l157
136 1768 1 1767 0 0 -145z m0 -455 l0 -140 -1854 0 -1853 0 -69 52 c-38 28
-70 52 -71 52 -1 1 7 26 17 56 11 30 19 70 20 88 l0 32 1905 0 1905 0 0 -140z
m-2085 -1585 c1018 -774 1859 -1416 1870 -1426 19 -19 -32 -19 -1943 -19
l-1962 0 0 1394 0 1394 48 16 c26 9 63 27 82 40 19 13 40 21 45 16 6 -4 843
-641 1860 -1415z m2085 1135 l0 -140 -1558 0 -1559 0 -171 130 c-94 72 -174
135 -177 140 -4 7 597 10 1729 10 l1736 0 0 -140z m0 -455 l0 -145 -1256 0
-1257 0 -151 115 c-83 63 -167 128 -186 144 l-35 30 1443 1 1442 0 0 -145z
m-2 -457 l-3 -143 -953 -3 -952 -2 -173 131 c-94 73 -179 138 -187 145 -12 12
161 14 1128 14 l1143 0 -3 -142z m0 -460 l3 -148 -654 0 -653 0 -184 141
c-102 77 -189 145 -195 150 -6 6 310 8 835 7 l845 -3 3 -147z m2 -463 l0 -145
-351 0 -350 0 -180 137 c-99 75 -182 140 -185 145 -3 4 236 8 530 8 l536 0 0
-145z m0 -496 c0 -141 -3 -179 -12 -173 -19 12 -430 325 -448 341 -12 11 23
13 223 13 l237 0 0 -181z"/>
</g>
</svg>
